HIERARCHY
ROOT Hips
{
  OFFSET -35.4901 99.2528 17.4586
  CHANNELS 6 Xposition Yposition Zposition Zrotation Xrotation Yrotation
  JOINT LeftUpLeg
  {
    OFFSET 8.64259 1.95398 -2.38835
    CHANNELS 3 Zrotation Xrotation Yrotation
    JOINT LeftLeg
    {
      OFFSET 43.7702 0 0
      CHANNELS 3 Zrotation Xrotation Yrotation
      JOINT LeftFoot
      {
        OFFSET 40.6238 0 0
        CHANNELS 3 Zrotation Xrotation Yrotation
        JOINT LeftToeBase
        {
          OFFSET 12.7242 0 0
          CHANNELS 3 Zrotation Xrotation Yrotation
          End Site
          {
            OFFSET 0 0 0
          }
        }
      }
    }
  }
  JOINT RightUpLeg
  {
    OFFSET -8.2249 1.95398 -2.59336
    CHANNELS 3 Zrotation Xrotation Yrotation
    JOINT RightLeg
    {
      OFFSET 43.5653 0 0
      CHANNELS 3 Zrotation Xrotation Yrotation
      JOINT RightFoot
      {
        OFFSET 40.6238 0 0
        CHANNELS 3 Zrotation Xrotation Yrotation
        JOINT RightToeBase
        {
          OFFSET 12.7242 0 0
          CHANNELS 3 Zrotation Xrotation Yrotation
          End Site
          {
            OFFSET 0 0 0
          }
        }
      }
    }
  }
  JOINT Spine
  {
    OFFSET 0.165834 0.87714 6.61349
    CHANNELS 3 Zrotation Xrotation Yrotation
    JOINT Spine1
    {
      OFFSET 7.38963 1.71661e-005 0
      CHANNELS 3 Zrotation Xrotation Yrotation
      JOINT Spine2
      {
        OFFSET 11.9445 1.14441e-005 0
        CHANNELS 3 Zrotation Xrotation Yrotation
        JOINT Spine3
        {
          OFFSET 14.7254 4.19617e-005 0
          CHANNELS 3 Zrotation Xrotation Yrotation
          JOINT Spine4
          {
            OFFSET 10.9679 0 0
            CHANNELS 3 Zrotation Xrotation Yrotation
            JOINT RightShoulder
            {
              OFFSET 2.46616 -1.6653 3.69651
              CHANNELS 3 Zrotation Xrotation Yrotation
              JOINT RightArm
              {
                OFFSET 13.0012 0 0
                CHANNELS 3 Zrotation Xrotation Yrotation
                JOINT RightForeArm
                {
                  OFFSET 28.7848 1.52588e-005 0
                  CHANNELS 3 Zrotation Xrotation Yrotation
                  JOINT RightHand
                  {
                    OFFSET 26.5688 1.52588e-005 0
                    CHANNELS 3 Zrotation Xrotation Yrotation
                    End Site
                    {
                      OFFSET 0 0 0
                    }
                  }
                }
              }
            }
            JOINT LeftShoulder
            {
              OFFSET 2.38034 -1.29275 -3.7523
              CHANNELS 3 Zrotation Xrotation Yrotation
              JOINT LeftArm
              {
                OFFSET 16.3182 6.10351e-005 0
                CHANNELS 3 Zrotation Xrotation Yrotation
                JOINT LeftForeArm
                {
                  OFFSET 27.0901 0 0
                  CHANNELS 3 Zrotation Xrotation Yrotation
                  JOINT LeftHand
                  {
                    OFFSET 24.5451 1.52588e-005 0
                    CHANNELS 3 Zrotation Xrotation Yrotation
                    End Site
                    {
                      OFFSET 0 0 0
                    }
                  }
                }
              }
            }
            JOINT Neck
            {
              OFFSET 5.0226 -0.0266342 0
              CHANNELS 3 Zrotation Xrotation Yrotation
              JOINT Head
              {
                OFFSET 6.69364 2.86102e-005 0
                CHANNELS 3 Zrotation Xrotation Yrotation
                End Site
                {
                  OFFSET 0 0 0
                }
              }
            }
          }
        }
      }
    }
  }
}
MOTION
Frames:	12
Frame Time:	0.0416667
34.3575 94.7984 -0.499341 -111.257 -70.3995 -113.804 179.717 17.0344 87.4179 -8.4573 10.3104 -0.482579 57.8985 1.02643 -5.31679 18.476 -5.55945 8.58699 169.17 -16.2581 85.0549 -25.916 -29.4913 -3.65996 81.1897 -11.8722 -6.94229 28.9286 -2.5604 6.91637 1.78844 8.07543 -89.8359 10.7275 3.63712 -0.00817148 -0.938379 3.63325 -0.168455 -23.5118 3.47122 1.08666 -3.49916 3.47122 1.08665 87.381 -28.8915 -112.42 28.8503 -2.99601 -16.8489 -10.7978 -28.9669 -33.5752 -27.5881 0.35005 -10.1672 -80.702 -56.9693 93.1018 -22.2774 3.47737 4.68069 3.56205 0.372358 -2.48421 -0.730924 -0.0845235 -3.95067 3.91439 -9.21335 2.02669 -1.70632 -9.43441 -12.5841 
31.9257 95.3468 10.306 -108 -65.9928 -112.892 -178.195 16.8054 85.2604 -22.8371 9.17639 -1.91701 63.6462 2.27977 -9.04986 14.3264 -10.252 14.4215 170.967 -12.5771 82.1096 -41.6899 -28.176 -8.27641 67.584 -3.95002 -4.35428 36.1849 -3.20477 9.81597 1.65738 7.93367 -89.467 10.9982 3.54634 0.722866 -0.668004 3.57471 0.565884 -23.2339 3.165 1.75619 -3.22122 3.165 1.75619 88.4729 -28.7002 -110.336 36.6633 -9.37132 -13.7221 -3.64111 -32.7232 -24.1333 -26.4629 0.0259646 -9.19138 -82.167 -55.1922 90.9229 -25.7457 2.75925 2.1036 4.24688 0.550835 -1.948 -3.4397 -0.0856614 -5.5612 4.81108 -8.99043 -0.62088 -2.82618 -8.6437 -10.7207 
29.6111 95.7893 18.6982 -106.763 -60.5963 -113.282 -177.529 11.8253 83.7115 -27.7093 4.66471 -3.58007 70.4836 4.30323 -7.99609 17.343 -7.62892 11.3337 176.261 0.0434048 80.1619 -63.8746 -23.5142 -7.35828 59.4992 -0.436088 -1.70648 21.2415 -2.01263 5.31961 1.11686 8.05347 -89.198 10.7499 2.59374 1.35531 -0.919091 2.65088 1.23979 -23.4629 2.06657 2.07227 -3.45025 2.06655 2.07225 87.639 -30.3566 -111.245 39.904 -14.1167 -9.72495 4.27344 -30.8643 -13.3954 -21.9016 -0.0236884 -9.20518 -82.9791 -54.1645 89.6736 -25.108 4.9353 -6.67655 3.39325 -2.26686 -0.276903 0.287981 -0.117627 -5.70175 6.24455 -7.23514 -1.47917 -2.12804 -6.79258 -9.72097 
26.7896 96.4859 25.6804 -103.838 -54.9198 -108.86 -176.953 6.05611 85.1722 -28.2196 0.486605 -4.50095 76.5027 5.92785 -6.98347 17.0637 -7.41021 11.0091 -179.857 12.2959 83.3428 -67.5111 -17.6997 -5.93589 68.717 -5.20874 -4.69298 22.8673 -2.2633 6.02839 0.56684 8.10057 -89.3628 10.6652 1.42249 1.13708 -1.0054 1.47116 1.07337 -23.5401 1.01503 1.512 -3.52749 1.01503 1.51199 87.5843 -31.1732 -110.993 41.778 -12.3502 -3.25681 5.95112 -34.152 -10.0587 -21.6769 -0.592288 -6.32712 -83.7468 -53.3594 88.4872 -20.0796 5.39534 -16.931 3.23686 -1.47776 -0.914017 1.30856 -0.130293 -5.54168 6.13025 -4.5156 -3.17359 -0.465029 -3.90246 -6.75111 
23.1913 97.1196 32.3523 -100.352 -49.8138 -102.244 -177.151 0.350473 86.432 -26.0834 -4.78798 -3.02712 80.497 6.03762 -6.22086 15.9463 -8.31655 12.0906 -179.259 19.7121 89.5707 -50.2832 -17.0992 -4.87069 71.3412 -6.5956 -4.50149 22.6241 -3.12552 8.01875 0.0439768 8.0136 -89.7179 10.8458 0.217931 0.540682 -0.825248 0.241507 0.530564 -23.3595 0.0453587 0.581177 -3.34687 0.0453555 0.581174 88.7265 -30.7942 -108.945 41.4443 -9.38599 2.57661 5.05142 -30.2002 -10.9594 -21.6771 -0.204891 -8.09452 -84.3604 -49.2614 87.1167 -16.2213 3.37159 -21.5185 4.59427 1.15619 -7.50153 4.57376 -0.108891 -4.67257 6.25731 -1.73899 -5.22758 -1.49661 -0.709244 -3.5717 
18.9395 96.7352 39.0399 -98.1441 -47.1556 -98.672 -177.629 -5.88584 86.5293 -22.1977 -8.87114 -2.16776 83.8741 6.51063 -6.16866 15.5119 -6.97426 10.2367 177.055 20.1845 93.8498 -21.8395 -13.5462 -1.11524 64.9667 -3.34451 -1.46524 22.5257 -1.60003 4.49315 -0.493779 7.9235 -89.9731 11.0272 -0.97046 0.146809 -0.643347 -0.963084 0.189381 -23.1815 -0.969739 -0.151681 -3.1689 -0.96971 -0.15167 89.5952 -31.0619 -107.148 38.288 -5.56599 7.90401 3.48414 -27.1378 -13.8354 -22.0323 0.216247 -10.1626 -84.7381 -45.5628 86.0526 -13.0802 1.09586 -25.9803 6.30041 3.91517 -11.2948 3.42039 -0.208445 -6.7582 6.34751 0.402685 -6.18052 -1.85413 1.59654 0.47729 
13.6561 94.8665 46.443 -96.5335 -45.9011 -96.5883 -177.425 -11.9488 86.1615 -20.5758 -10.4918 -2.2217 87.4536 7.67976 -5.22865 17.0892 -6.3918 9.76936 176.248 19.6743 96.6454 -6.24073 -3.2748 0.736954 64.5839 -3.24622 -0.911076 22.5793 -1.77427 4.88987 -0.730225 7.79379 -90.1379 11.2857 -1.51743 -0.123986 -0.384334 -1.52142 -0.0570736 -22.9257 -1.41 -0.574392 -2.91309 -1.41002 -0.574404 90.3923 -32.154 -105.207 36.6862 -1.43607 11.2438 3.07085 -24.6392 -12.2211 -25.195 -0.110439 -7.31822 -85.0947 -45.0029 85.4034 -10.3549 -0.0227886 -30.7192 6.7783 3.64289 -14.0062 1.85449 -0.246831 -8.52876 7.09025 1.10329 -5.60953 -2.40083 2.19574 2.29454 
7.19959 93.7029 54.9053 -97.1177 -47.3912 -95.9051 -175.391 -18.2973 88.5171 -21.1461 -8.3277 -2.318 83.8427 8.0507 -4.85672 32.7993 -3.60142 5.88059 175.669 23.4757 97.5249 -19.13 -4.78762 1.03638 62.6568 -0.730856 -3.94842 20.4755 -1.68859 4.74384 -1.0054 7.73862 -90.4306 11.393 -2.20141 -0.635516 -0.276224 -2.22722 -0.537973 -22.8221 -1.90862 -1.26793 -2.80944 -1.90861 -1.26793 91.0458 -33.1958 -103.605 36.537 0.898084 10.8261 6.1202 -24.0295 -5.77011 -21.9051 -0.22595 -6.93197 -85.457 -46.5402 85.0553 -14.3773 0.222707 -32.1598 9.03106 6.62024 -17.8719 1.03986 -0.241537 -9.42849 8.39359 1.39447 -3.10678 -3.52397 1.98508 2.56602 
0.189851 94.0502 63.2847 -99.8427 -48.3623 -97.0858 -169.529 -14.5824 95.1395 -38.0392 4.96225 -1.79884 70.3699 5.02578 -0.668956 40.2912 0.99555 -3.44389 174.371 21.7078 97.5654 -31.5138 -5.65782 1.81526 66.1282 -2.2888 -5.03083 10.9388 -2.05032 5.53138 -1.00039 7.75285 -90.5738 11.3597 -2.25813 -0.916299 -0.309546 -2.29627 -0.815989 -22.8538 -1.87836 -1.55273 -2.84115 -1.87835 -1.55273 90.8025 -32.9878 -104.136 40.1132 1.74668 10.3266 6.2432 -23.5795 -5.62691 -17.9773 0.130572 -10.0689 -85.4218 -48.4473 85.3864 -18.9144 4.76192 -29.5255 11.7727 15.8625 -19.6867 -0.495737 -0.195654 -10.7811 7.56475 1.06135 -1.09198 -4.10692 1.23114 1.75015 
-5.89654 94.7456 69.5508 -101.992 -47.811 -96.7515 -166.218 0.435883 101.072 -61.1799 14.2798 1.66636 60.3273 1.23538 -2.12754 14.283 -1.00898 2.56891 174.899 15.115 99.3995 -33.8634 -5.16247 1.81266 72.63 -5.73288 -4.8806 11.6581 -1.05598 3.72469 -0.572908 7.96156 -90.7223 10.9404 -1.47483 -1.29725 -0.730266 -1.53049 -1.2311 -23.264 -1.01682 -1.68047 -3.25133 -1.01683 -1.68047 90.0063 -32.761 -105.732 41.6039 -1.69672 5.55457 4.42835 -25.5168 -10.0287 -17.8554 0.193574 -11.0134 -85.2117 -50.5939 85.9994 -21.4441 8.15429 -26.2446 11.3078 23.1952 -16.4244 -4.39516 0.0253739 -9.81276 7.51956 -0.210383 0.166616 -3.88914 -0.257469 1.05675 
-10.671 96.0323 75.2947 -101.267 -45.8019 -97.6669 -170.811 13.4841 96.3521 -65.2846 2.47784 2.48331 71.3438 6.0003 -0.286721 13.0448 -1.0902 2.5549 174.878 8.35961 97.5402 -30.902 -8.19329 0.563076 76.2005 -7.23846 -4.71211 13.9916 -0.708679 2.9818 -0.061189 8.007 -90.4623 10.8623 -0.335391 -0.887016 -0.808885 -0.374082 -0.871404 -23.3415 -0.0533164 -0.946795 -3.32887 -0.0532987 -0.94679 89.3423 -32.7226 -107.006 38.2491 -5.6676 -4.06389 4.24819 -26.2326 -12.1524 -22.787 -0.162764 -7.59795 -84.7631 -51.5192 86.7868 -24.7449 9.10696 -19.8938 4.65446 15.4038 -5.04896 -0.751843 -0.130839 -6.63831 5.08546 -1.28787 1.27962 -2.54372 -1.49777 -0.165217 
-15.2369 97.0433 81.4 -99.4294 -40.6408 -98.2911 -175.555 20.5138 91.9844 -49.9337 -4.38701 1.03968 71.6293 6.4725 -1.78829 10.1532 -2.45341 4.32491 174.154 2.07564 93.781 -27.9317 -13.9184 -1.24814 78.5411 -8.21458 -3.97968 15.8915 -0.899192 3.25019 0.711799 8.09945 -90.1229 10.6778 1.36094 -0.368342 -0.992492 1.34342 -0.427892 -23.5331 1.40872 0.057783 -3.52046 1.40873 0.0577894 89.0181 -30.8369 -108.362 34.9072 -6.89569 -12.8536 0.98496 -27.0825 -16.9126 -24.2632 -0.110495 -7.77602 -84.4577 -52.4741 87.3512 -25.9908 9.0582 -10.9639 2.10135 5.67697 -0.0539202 -0.509371 -0.104713 -5.28694 4.73588 -1.64479 3.4773 -2.56841 -2.23636 -1.48929 
